<svg xmlns="http://www.w3.org/2000/svg" viewBox="2.5 2 20 20" fill="none"><path fill="#2fc7f7" d="M20.014 9.446a1.9 1.9 0 0 0-1.9-1.9h-.324v4.656h.324a1.9 1.9 0 0 0 1.9-1.9zm-11.45 7.69V9.732c-.319.64-.639 1.284-1.005 2.062a.8.8 0 0 1-1.444.01l-.991-2.037v7.37a.7.7 0 0 1-1.4 0V6.829a.7.7 0 0 1 .7-.7c.075 0 .145.016.213.038a.7.7 0 0 1 .474.372l1.72 3.537c.205-.418.4-.808.594-1.198.356-.716.712-1.433 1.132-2.33a.7.7 0 0 1 .533-.394.7.7 0 0 1 .174-.025.7.7 0 0 1 .7.7v10.309a.7.7 0 0 1-1.4 0m2.32-2.519V9.334a3.2 3.2 0 0 1 3.201-3.2h.73a.7.7 0 0 1 0 1.4h-.73a1.8 1.8 0 0 0-1.8 1.8v5.283a1.8 1.8 0 0 0 1.8 1.801h.73a.7.7 0 1 1 0 1.4h-.73a3.2 3.2 0 0 1-3.2-3.2m10.53-4.314a3.3 3.3 0 0 1-3.3 3.3h-.325v3.538a.7.7 0 0 1-1.4 0V6.847a.7.7 0 0 1 .7-.7h1.025a3.3 3.3 0 0 1 3.3 3.3z"/></svg>
